<svg xmlns="http://www.w3.org/2000/svg" viewBox="0 0 48 48" width="48" height="48" baseProfile="tiny" version="1.2">
  <path d="M 35.55,13.49 L 31.56,13.49 C 31.01,13.49 30.61,13.04 30.61,12.54 C 30.61,11.99 31.01,11.54 31.56,11.54 L 35.55,11.54 C 36.1,11.54 36.55,11.99 36.55,12.54 C 36.55,13.04 36.1,13.49 35.55,13.49" fill="#031225"/>
  <path d="M 21.03,29.46 C 18.53,29.96 16.83,32.26 17.03,34.75 C 17.28,37.3 19.43,39.25 21.97,39.25 C 24.52,39.25 26.62,37.3 26.87,34.75 C 27.12,32.26 25.37,29.96 22.87,29.46 C 22.87,25.77 22.87,22.08 22.87,18.38 C 22.87,17.83 22.47,17.43 21.97,17.43 C 21.48,17.43 21.03,17.83 21.03,18.38 C 21.03,22.08 21.03,25.77 21.03,29.46" fill="#031225"/>
  <path d="M 15.84,26.82 C 12.64,29.41 11.44,33.71 12.84,37.55 C 14.19,41.44 17.88,43.99 21.97,43.99 C 26.07,43.99 29.71,41.44 31.11,37.55 C 32.46,33.71 31.26,29.41 28.11,26.82 C 28.11,21.23 28.11,15.69 28.11,10.15 C 28.11,6.75 25.37,4.01 21.97,4.01 C 18.58,4.01 15.84,6.75 15.84,10.15 C 15.84,15.69 15.84,21.23 15.84,26.82 M 25.92,27.72 C 28.86,29.46 30.31,33.01 29.36,36.35 C 28.46,39.7 25.42,41.99 21.97,41.99 C 18.48,41.99 15.49,39.7 14.54,36.35 C 13.64,33.01 15.04,29.46 18.03,27.72 C 18.03,21.93 18.03,16.09 18.03,10.3 C 18.03,8.15 19.78,6.35 21.97,6.35 C 24.12,6.35 25.92,8.15 25.92,10.3 C 25.92,16.09 25.92,21.93 25.92,27.72" fill="#031225"/>
  <path d="M 35.55,19.08 L 31.56,19.08 C 31.01,19.08 30.61,18.63 30.61,18.08 C 30.61,17.58 31.01,17.13 31.56,17.13 L 35.55,17.13 C 36.1,17.13 36.55,17.58 36.55,18.08 C 36.55,18.63 36.1,19.08 35.55,19.08" fill="#031225"/>
  <path d="M 35.55,24.62 L 31.56,24.62 C 31.01,24.62 30.61,24.17 30.61,23.62 C 30.61,23.12 31.01,22.68 31.56,22.68 L 35.55,22.68 C 36.1,22.68 36.55,23.12 36.55,23.62 C 36.55,24.17 36.1,24.62 35.55,24.62" fill="#031225"/>
</svg>
