<svg xmlns="http://www.w3.org/2000/svg" viewBox="0 0 48 48" width="48" height="48" baseProfile="tiny" version="1.2">
  <path d="M 16.65,17.69 C 15.54,15.23 15.78,12.35 17.27,10.06 C 18.73,7.77 21.26,6.42 24,6.42 C 26.71,6.42 29.27,7.77 30.73,10.06 C 32.22,12.35 32.43,15.23 31.32,17.69 C 32.95,17.07 34.79,17.17 36.35,17.97 C 37.91,18.73 39.06,20.16 39.51,21.85 C 39.92,23.55 39.65,25.36 38.68,26.82 C 37.7,28.27 36.18,29.24 34.44,29.49 C 33.71,29.59 33.23,30.25 33.33,30.98 C 33.44,31.67 34.1,32.19 34.79,32.09 C 39.2,31.46 42.39,27.65 42.32,23.24 C 42.21,18.8 38.81,15.16 34.44,14.71 C 34.51,11.9 33.44,9.16 31.49,7.15 C 29.52,5.13 26.81,3.99 24,3.99 C 21.19,3.99 18.49,5.13 16.51,7.15 C 14.57,9.16 13.49,11.9 13.56,14.71 C 9.15,15.16 5.79,18.8 5.68,23.24 C 5.62,27.65 8.81,31.46 13.21,32.09 C 13.91,32.19 14.57,31.67 14.67,30.98 C 14.77,30.25 14.29,29.59 13.56,29.49 C 11.83,29.24 10.3,28.27 9.33,26.82 C 8.36,25.36 8.04,23.55 8.49,21.85 C 8.95,20.16 10.09,18.73 11.65,17.97 C 13.21,17.17 15.02,17.07 16.65,17.69" fill="#FFFFFF"/>
  <path d="M 25.15,24.49 C 25.15,23.87 24.63,23.35 24,23.35 C 23.38,23.35 22.86,23.87 22.86,24.49 C 22.86,30.63 22.86,36.74 22.86,42.88 C 22.86,43.5 23.38,43.99 24,43.99 C 24.63,43.99 25.15,43.5 25.15,42.88 C 25.15,36.74 25.15,30.63 25.15,24.49" fill="#FFFFFF"/>
  <path d="M 30.7,36.43 C 30.7,33.16 30.7,29.87 30.7,26.61 C 30.7,25.98 30.18,25.46 29.55,25.46 C 28.93,25.46 28.41,25.98 28.41,26.61 C 28.41,29.87 28.41,33.13 28.41,36.39 C 28.41,39.69 30.63,42.57 33.78,43.47 C 34.41,43.61 35.03,43.26 35.21,42.67 C 35.38,42.04 35,41.42 34.41,41.25 L 34.37,41.25 C 32.29,40.66 30.73,38.75 30.73,36.46 L 30.7,36.43" fill="#FFFFFF"/>
  <path d="M 17.44,36.46 C 17.44,33.16 17.44,29.9 17.44,26.61 C 17.44,25.98 17.97,25.5 18.59,25.5 C 19.21,25.5 19.73,25.98 19.73,26.61 C 19.73,29.87 19.73,33.13 19.73,36.39 C 19.73,39.69 17.55,42.6 14.36,43.47 C 13.73,43.64 13.11,43.29 12.94,42.67 C 12.8,42.08 13.14,41.46 13.77,41.28 L 13.77,41.25 C 15.85,40.69 17.41,38.75 17.44,36.46 L 17.44,36.46" fill="#FFFFFF"/>
</svg>
