<svg xmlns="http://www.w3.org/2000/svg" viewBox="0 0 48 48" width="48" height="48" baseProfile="tiny" version="1.2">
  <path d="M 17.95,16.52 L 21.12,16.52 C 21.39,16.52 21.62,16.73 21.62,16.99 L 21.62,31.23 C 21.62,31.5 21.39,31.72 21.12,31.72 L 17.95,31.72 C 17.68,31.72 17.45,31.5 17.45,31.23 L 17.45,16.99 C 17.45,16.73 17.68,16.52 17.95,16.52" fill="#FFFFFF" fill-rule="evenodd"/>
  <path d="M 26.94,16.52 L 30.11,16.52 C 30.38,16.52 30.59,16.73 30.59,16.99 L 30.59,31.23 C 30.59,31.5 30.38,31.72 30.11,31.72 L 26.94,31.72 C 26.65,31.72 26.45,31.5 26.45,31.23 L 26.45,16.99 C 26.45,16.73 26.65,16.52 26.94,16.52" fill="#FFFFFF" fill-rule="evenodd"/>
  <path d="M 23.99,44 C 35.04,44 43.99,35.05 43.99,24.01 C 43.99,12.96 35.04,4.01 23.99,4.01 C 12.95,4.01 3.99,12.96 3.99,24.01 C 3.99,35.05 12.95,44 23.99,44 M 23.99,42.24 C 34.07,42.24 42.24,34.06 42.24,24.01 C 42.24,13.93 34.07,5.78 23.99,5.78 C 13.94,5.78 5.76,13.93 5.76,24.01 C 5.76,34.06 13.94,42.24 23.99,42.24" fill="#FFFFFF" fill-rule="evenodd"/>
</svg>
