<?xml version="1.0" encoding="UTF-8"?>
<!DOCTYPE svg PUBLIC "-//W3C//DTD SVG 1.1//EN" "http://www.w3.org/Graphics/SVG/1.1/DTD/svg11.dtd">
<!-- Creator: CorelDRAW 2021 (64-Bit) -->
<svg xmlns="http://www.w3.org/2000/svg" xml:space="preserve" width="69px" height="98px" version="1.1" style="shape-rendering:geometricPrecision; text-rendering:geometricPrecision; image-rendering:optimizeQuality; fill-rule:evenodd; clip-rule:evenodd"
viewBox="0 0 184000 261000"
 xmlns:xlink="http://www.w3.org/1999/xlink"
 xmlns:xodm="http://www.corel.com/coreldraw/odm/2003">
 <defs>
  <style type="text/css">
   <![CDATA[
    .fil0 {fill:black;fill-rule:nonzero}
   ]]>
  </style>
 </defs>
 <g id="Capa_x0020_1">
  <metadata id="CorelCorpID_0Corel-Layer"/>
  <g id="_1842574581872">
   <path class="fil0" d="M11000 211000c21000,-20000 23000,-52000 5000,-75000 -11000,-14000 -17000,-32000 -16000,-50000 2000,-18000 10000,-35000 23000,-48000 4000,-3000 9000,-3000 12000,1000 3000,3000 3000,8000 -1000,11000 -21000,20000 -23000,53000 -5000,76000 11000,14000 17000,32000 16000,50000 -2000,18000 -10000,35000 -23000,47000 -3000,3000 -9000,3000 -12000,0 -3000,-4000 -3000,-9000 1000,-12000z"/>
   <path class="fil0" d="M75000 241000c29000,-27000 32000,-72000 7000,-103000 -16000,-19000 -24000,-44000 -22000,-69000 2000,-26000 13000,-49000 32000,-66000 5000,-4000 12000,-4000 16000,1000 5000,4000 4000,12000 0,16000 -30000,27000 -33000,73000 -8000,104000 16000,19000 23000,44000 22000,69000 -2000,25000 -13000,48000 -31000,65000 -5000,5000 -12000,4000 -17000,0 -4000,-5000 -4000,-12000 1000,-17000z"/>
   <path class="fil0" d="M150000 211000c21000,-20000 23000,-52000 5000,-75000 -11000,-14000 -17000,-32000 -16000,-50000 2000,-18000 10000,-35000 23000,-48000 4000,-3000 9000,-3000 12000,1000 3000,3000 3000,8000 0,11000 -22000,20000 -24000,53000 -6000,76000 11000,14000 17000,32000 16000,50000 -1000,18000 -9000,35000 -23000,47000 -3000,3000 -8000,3000 -11000,0 -4000,-4000 -3000,-9000 0,-12000z"/>
  </g>
 </g>
</svg>
