<?xml version="1.0" encoding="UTF-8"?>
<!DOCTYPE svg PUBLIC "-//W3C//DTD SVG 1.1//EN" "http://www.w3.org/Graphics/SVG/1.1/DTD/svg11.dtd">
<!-- Creator: CorelDRAW 2021 (64-Bit) -->
<svg xmlns="http://www.w3.org/2000/svg" xml:space="preserve" width="108px" height="108px" version="1.1" style="shape-rendering:geometricPrecision; text-rendering:geometricPrecision; image-rendering:optimizeQuality; fill-rule:evenodd; clip-rule:evenodd"
viewBox="0 0 525000 525000"
 xmlns:xlink="http://www.w3.org/1999/xlink"
 xmlns:xodm="http://www.corel.com/coreldraw/odm/2003">
 <defs>
  <style type="text/css">
   <![CDATA[
    .fil1 {fill:black}
    .fil0 {fill:#CCCCCC}
    .fil2 {fill:white;fill-rule:nonzero}
   ]]>
  </style>
 </defs>
 <g id="Capa_x0020_1">
  <metadata id="CorelCorpID_0Corel-Layer"/>
  <path class="fil0" d="M263000 511000c137000,0 248000,-111000 248000,-248000 0,-138000 -111000,-249000 -248000,-249000 -138000,0 -249000,111000 -249000,249000 0,137000 111000,248000 249000,248000z"/>
  <path class="fil1" d="M263000 525000c145000,0 262000,-117000 262000,-262000 0,-145000 -117000,-263000 -262000,-263000 -145000,0 -263000,118000 -263000,263000 0,145000 118000,262000 263000,262000z"/>
  <g id="_1842983635552">
   <path class="fil2" d="M304000 165000c2000,-7000 9000,-12000 16000,-10000 7000,2000 12000,9000 10000,16000 -2000,7000 -9000,12000 -16000,10000 -7000,-1000 -12000,-9000 -10000,-16000z"/>
   <path class="fil2" d="M221000 165000c-1000,-7000 -8000,-12000 -16000,-10000 -7000,2000 -12000,9000 -10000,16000 2000,7000 9000,12000 16000,10000 8000,-1000 12000,-9000 10000,-16000z"/>
   <path class="fil2" d="M282000 367000c2000,-7000 9000,-12000 16000,-10000 8000,2000 12000,9000 10000,16000 -1000,8000 -9000,12000 -16000,10000 -7000,-1000 -12000,-9000 -10000,-16000z"/>
   <path class="fil2" d="M295000 322000c2000,-7000 9000,-12000 16000,-10000 8000,2000 12000,9000 11000,16000 -2000,7000 -9000,12000 -17000,10000 -7000,-1000 -11000,-9000 -10000,-16000z"/>
   <path class="fil2" d="M311000 278000c1000,-7000 9000,-12000 16000,-10000 7000,2000 12000,9000 10000,16000 -2000,7000 -9000,12000 -16000,10000 -7000,-1000 -12000,-9000 -10000,-16000z"/>
   <path class="fil2" d="M328000 234000c2000,-8000 9000,-12000 16000,-10000 8000,1000 12000,9000 10000,16000 -1000,7000 -9000,12000 -16000,10000 -7000,-2000 -12000,-9000 -10000,-16000z"/>
   <path class="fil2" d="M350000 192000c2000,-7000 9000,-12000 16000,-10000 7000,2000 12000,9000 10000,16000 -1000,7000 -9000,12000 -16000,10000 -7000,-1000 -12000,-9000 -10000,-16000z"/>
   <path class="fil2" d="M374000 152000c2000,-7000 9000,-12000 17000,-10000 7000,2000 11000,9000 10000,16000 -2000,7000 -9000,12000 -17000,10000 -7000,-1000 -11000,-9000 -10000,-16000z"/>
   <path class="fil2" d="M276000 299000c-2000,-7000 -9000,-12000 -16000,-10000 -8000,2000 -12000,9000 -10000,16000 1000,7000 8000,12000 16000,10000 7000,-1000 12000,-9000 10000,-16000z"/>
   <path class="fil2" d="M276000 252000c-2000,-7000 -9000,-12000 -16000,-10000 -8000,2000 -12000,9000 -10000,16000 1000,8000 8000,12000 16000,10000 7000,-1000 12000,-9000 10000,-16000z"/>
   <path class="fil2" d="M276000 203000c-2000,-7000 -9000,-12000 -16000,-10000 -8000,2000 -12000,9000 -10000,16000 1000,8000 8000,12000 16000,10000 7000,-1000 12000,-8000 10000,-16000z"/>
   <path class="fil2" d="M276000 152000c-2000,-7000 -9000,-12000 -16000,-10000 -8000,2000 -12000,9000 -10000,16000 1000,7000 8000,12000 16000,10000 7000,-1000 12000,-9000 10000,-16000z"/>
   <path class="fil2" d="M243000 367000c-1000,-7000 -9000,-12000 -16000,-10000 -7000,2000 -12000,9000 -10000,16000 2000,8000 9000,12000 16000,10000 8000,-1000 12000,-9000 10000,-16000z"/>
   <path class="fil2" d="M230000 322000c-2000,-7000 -9000,-12000 -16000,-10000 -7000,2000 -12000,9000 -10000,16000 1000,7000 9000,12000 16000,10000 7000,-1000 12000,-9000 10000,-16000z"/>
   <path class="fil2" d="M215000 278000c-2000,-7000 -9000,-12000 -17000,-10000 -7000,2000 -11000,9000 -10000,16000 2000,7000 9000,12000 16000,10000 8000,-1000 12000,-9000 11000,-16000z"/>
   <path class="fil2" d="M197000 234000c-1000,-8000 -9000,-12000 -16000,-10000 -7000,1000 -12000,9000 -10000,16000 2000,7000 9000,12000 16000,10000 7000,-2000 12000,-9000 10000,-16000z"/>
   <path class="fil2" d="M175000 192000c-1000,-7000 -8000,-12000 -16000,-10000 -7000,2000 -12000,9000 -10000,16000 2000,7000 9000,12000 16000,10000 8000,-1000 12000,-9000 10000,-16000z"/>
   <path class="fil2" d="M151000 152000c-2000,-7000 -9000,-12000 -16000,-10000 -7000,2000 -12000,9000 -10000,16000 1000,7000 9000,12000 16000,10000 7000,-1000 12000,-9000 10000,-16000z"/>
  </g>
 </g>
</svg>
